<svg width="16" height="16" viewBox="0 0 16 16" fill="none" xmlns="http://www.w3.org/2000/svg">
<path d="M0 2C0 1.46957 0.210714 0.960859 0.585786 0.585786C0.960859 0.210714 1.46957 0 2 0H14C14.5304 0 15.0391 0.210714 15.4142 0.585786C15.7893 0.960859 16 1.46957 16 2V6H13.427L12.342 3.83C12.2175 3.58065 12.026 3.37092 11.7889 3.22434C11.5519 3.07775 11.2787 3.0001 11 3.0001C10.7213 3.0001 10.4481 3.07775 10.2111 3.22434C9.97402 3.37092 9.78251 3.58065 9.658 3.83L8.322 6.502L6.932 2.052C6.83966 1.75622 6.658 1.4963 6.41196 1.30795C6.16593 1.1196 5.86761 1.01206 5.55798 1.00011C5.24836 0.988166 4.94264 1.0724 4.68282 1.24123C4.42301 1.41007 4.22185 1.65522 4.107 1.943L2.485 6H0V2ZM12.5 9H16V11C16 11.5304 15.7893 12.0391 15.4142 12.4142C15.0391 12.7893 14.5304 13 14 13H11V15H12.5C12.6326 15 12.7598 15.0527 12.8536 15.1464C12.9473 15.2402 13 15.3674 13 15.5C13 15.6326 12.9473 15.7598 12.8536 15.8536C12.7598 15.9473 12.6326 16 12.5 16H3.5C3.36739 16 3.24021 15.9473 3.14645 15.8536C3.05268 15.7598 3 15.6326 3 15.5C3 15.3674 3.05268 15.2402 3.14645 15.1464C3.24021 15.0527 3.36739 15 3.5 15H5V13H2C1.46957 13 0.960859 12.7893 0.585786 12.4142C0.210714 12.0391 0 11.5304 0 11V9H3.5C3.80002 9.00025 4.09322 8.91053 4.34171 8.74243C4.59021 8.57432 4.78259 8.33557 4.894 8.057L5.327 6.974L6.568 10.947C6.65703 11.2327 6.82946 11.4852 7.06315 11.6721C7.29683 11.859 7.58108 11.9718 7.87935 11.9959C8.17762 12.02 8.47627 11.9543 8.73692 11.8073C8.99756 11.6603 9.20829 11.4387 9.342 11.171L11 7.854L11.158 8.171C11.2826 8.42018 11.4742 8.62972 11.7112 8.77615C11.9483 8.92257 12.2214 9.00008 12.5 9ZM10 15V13H6V15H10ZM5.977 2.35C5.94604 2.25165 5.88543 2.16527 5.80347 2.1027C5.72152 2.04013 5.62222 2.00443 5.51918 2.00049C5.41615 1.99654 5.31441 2.02455 5.22791 2.08068C5.14141 2.1368 5.07438 2.2183 5.036 2.314L3.162 7H0.5C0.367392 7 0.240215 7.05268 0.146447 7.14645C0.0526785 7.24021 0 7.36739 0 7.5C0 7.63261 0.0526785 7.75979 0.146447 7.85355C0.240215 7.94732 0.367392 8 0.5 8H3.5C3.60002 8.00018 3.6978 7.97035 3.7807 7.91437C3.86359 7.8584 3.92779 7.77885 3.965 7.686L5.442 3.99L7.522 10.648C7.55158 10.7433 7.60902 10.8277 7.68692 10.8901C7.76483 10.9525 7.85964 10.9902 7.95914 10.9982C8.05865 11.0063 8.15828 10.9844 8.24523 10.9353C8.33218 10.8863 8.40245 10.8123 8.447 10.723L11 5.618L12.053 7.724C12.0946 7.80695 12.1584 7.87669 12.2373 7.92544C12.3163 7.97418 12.4072 8 12.5 8H15.5C15.6326 8 15.7598 7.94732 15.8536 7.85355C15.9473 7.75979 16 7.63261 16 7.5C16 7.36739 15.9473 7.24021 15.8536 7.14645C15.7598 7.05268 15.6326 7 15.5 7H12.809L11.447 4.276C11.4054 4.19306 11.3416 4.12332 11.2627 4.07458C11.1837 4.02585 11.0928 4.00003 11 4.00003C10.9072 4.00003 10.8163 4.02585 10.7373 4.07458C10.6584 4.12332 10.5946 4.19306 10.553 4.276L8.107 9.167L5.977 2.35Z" fill="white"/>
</svg>
