<svg width="46" height="40" viewBox="0 0 46 40" fill="none" xmlns="http://www.w3.org/2000/svg">
<path d="M29.297 17.779C29.297 17.779 26.067 26.881 24.533 28.47C23.7924 29.2167 22.7876 29.6418 21.736 29.6531C20.6843 29.6645 19.6706 29.2612 18.9141 28.5306C18.1576 27.8 17.7192 26.8009 17.694 25.7495C17.6687 24.6981 18.0585 23.6791 18.779 22.913C20.313 21.323 29.297 17.779 29.297 17.779Z" stroke="white" stroke-width="4" stroke-linejoin="round"/>
<path d="M37.85 37.85C39.8026 35.9018 41.3511 33.587 42.4065 31.0385C43.4619 28.4901 44.0034 25.7583 44 23C44 11.402 34.598 2 23 2C11.402 2 2 11.402 2 23C2 28.799 4.35 34.049 8.15 37.85M23 3V7M37.845 10.142L34.737 12.659M41.522 26.233L37.625 25.333M4.477 26.233L8.375 25.333M8.155 10.142L11.263 12.659" stroke="white" stroke-width="4" stroke-linecap="round" stroke-linejoin="round"/>
</svg>
